<svg xmlns="http://www.w3.org/2000/svg" xmlns:xlink="http://www.w3.org/1999/xlink" id="Layer_1" x="0px" y="0px" viewBox="0 0 211.9 93.7" xml:space="preserve"> <g> <g> <path fill="#14487E" d="M103.9,4.8c-2.6,0-11.7,0-12.6,0c-0.9,0-1.4,0.7-1.4,1.4v52.6c0,0.8,0.7,1.5,1.4,1.5h12.3 c6.4-0.2,13.3-4.7,13.6-11.4c0-3.3,0-24,0-32.8C116.8,9,111.2,5.3,103.9,4.8z M107.9,24.2v5.9v14.7c0.1,5.3-3.9,5.8-3.9,5.8 c-1.5,0.3-4.3,1.1-5-1V28.9v-6.7v-6.6c0.7-2.1,3.5-1.3,5-1c0,0,4,0.5,3.9,5.8V24.2z"></path> <path fill="#14487E" d="M181.9,14.7c0.4,0,4.2,0.5,4.6,17.5c0.1,5.7-1,15-4,18c-0.5,0.6-0.9,0.7-1.4,0.7c-0.3,0-0.6,0-1.1-0.5 c-2.3-2.4-3.8-9.9-3.6-19.2V31C176.6,21.6,178.9,14.7,181.9,14.7z M166.4,30.9c-0.2,8.9,0.8,20.6,6.5,26.4 c2.2,2.3,5.6,3.5,8.7,3.5c3.3,0,5.8-1.2,8.2-3.6c6.9-7,7-22.3,6.9-25.3c-0.1-6.8-0.6-27.4-14.7-27.3c-9.6,0.1-15.2,9.6-15.4,26.2 L166.4,30.9z"></path> <path fill="#14487E" d="M49.9,59c0,0.8-0.5,1.4-1.2,1.4h-6.5c-0.6,0-1.2-0.7-1.2-1.4l0-38.7c0.1-0.4-0.3-6.3-4.7-6.2 c-4.8,0.1-4.9,4.8-4.9,4.8c0,0.1,0,40.1,0,40.1c0,0.8-0.5,1.4-1.2,1.4h-6.8c-0.6,0-1.2-0.7-1.2-1.4c0,0,0-40.1,0-40.1 c0,0-0.2-4.7-4.9-4.8c-4.4-0.1-4.9,5.8-4.7,6.2l0,38.6c0,0.8-0.5,1.4-1.2,1.4H4.7c-0.6,0-1.2-0.7-1.2-1.4l0-42.3 c0.6-6.4,3.1-10.7,8.9-12.1C17.6,2.8,23.7,4.8,26.7,9c3-4.1,9-6.2,14.3-4.5c5.8,1.4,8.3,5.7,8.9,12.1L49.9,59z"></path> <path fill="#14487E" d="M66.1,35.6l0-17.6c0-2.1,2.1-3.5,4-3.5c0.9,0,2,0.4,2.7,1.1c0.5,0.5,0.8,1.1,0.8,1.8c0,0,0,8.7,0,18.3 H66.1z M82.8,17.2c-0.1-3.4-0.6-6.6-3.1-8.9c-2.6-2.5-6.2-3.9-9.8-3.9c-7.7,0.2-12.9,6.1-13,13.5c0,0.1,0,41.1,0,41.1 c0,0.7,0.7,1.4,1.2,1.4h6.8c0.6,0,1.2-0.6,1.2-1.4l0-15.9h7.5c0,5.4,0,15.9,0,15.9c0,0.7,0.7,1.4,1.2,1.4h6.8 c0.6,0,1.2-0.6,1.2-1.4L82.8,17.2z"></path> <path fill="#14487E" d="M133.3,6.2c0-0.7-0.7-1.4-1.2-1.4h-6.7c-0.6,0-1.2,0.6-1.2,1.4l0,52.7c0,0.7,0.7,1.4,1.2,1.4h6.7 c0.6,0,1.2-0.6,1.2-1.4V6.2z"></path> <path fill="#14487E" d="M159.9,50.5c0.8,0,1.4,0.5,1.4,1.2v7.7c0,0.6-0.2,1.2-0.9,1.2l-0.3,0c-4-0.3-10.9-1.9-15.6-8.2 c-6.9-9.3-5.1-29.3-1.5-36.5c4.3-8.8,12.5-10.7,16.8-11.1l0.1,0c0.8,0,1.4,0.5,1.4,1.2v7.7c0,0.6-0.7,1.2-1.4,1.2l-0.1,0.1 c-2.5,0.4-5.9,1.7-7.8,5.4c-2.3,4.7-3.6,20.5,0.5,26.1C154.6,49.2,157.5,50.2,159.9,50.5L159.9,50.5z"></path> <g> <path fill="#14487E" d="M203.1,5.4c0.9,0,1.8,0.2,2.6,0.7c0.9,0.5,1.5,1.1,2,2c0.5,0.9,0.7,1.7,0.7,2.7c0,0.9-0.2,1.8-0.7,2.6 c-0.5,0.8-1.1,1.5-2,2c-0.8,0.5-1.7,0.7-2.6,0.7c-0.9,0-1.8-0.2-2.6-0.7c-0.8-0.5-1.5-1.1-2-2c-0.5-0.8-0.7-1.7-0.7-2.6 c0-0.9,0.2-1.8,0.7-2.7c0.5-0.9,1.1-1.5,2-2C201.3,5.6,202.2,5.4,203.1,5.4z M203.1,6.2c-0.7,0-1.5,0.2-2.2,0.6 c-0.7,0.4-1.3,0.9-1.7,1.6c-0.4,0.7-0.6,1.5-0.6,2.2c0,0.8,0.2,1.5,0.6,2.2c0.4,0.7,0.9,1.3,1.6,1.6c0.7,0.4,1.4,0.6,2.2,0.6 c0.8,0,1.5-0.2,2.2-0.6c0.7-0.4,1.3-0.9,1.6-1.6c0.4-0.7,0.6-1.4,0.6-2.2c0-0.8-0.2-1.5-0.6-2.2c-0.4-0.7-1-1.3-1.7-1.6 C204.6,6.4,203.9,6.2,203.1,6.2z M200.8,13.6V7.9h2c0.7,0,1.2,0.1,1.5,0.2c0.3,0.1,0.5,0.3,0.7,0.6c0.2,0.3,0.3,0.5,0.3,0.8 c0,0.4-0.1,0.8-0.4,1.1c-0.3,0.3-0.7,0.5-1.2,0.5c0.2,0.1,0.4,0.2,0.5,0.3c0.2,0.2,0.5,0.6,0.8,1.1l0.7,1.1h-1.1l-0.5-0.9 c-0.4-0.7-0.7-1.2-1-1.3c-0.2-0.1-0.4-0.2-0.7-0.2h-0.5v2.4H200.8z M201.7,10.4h1.1c0.5,0,0.9-0.1,1.1-0.2 c0.2-0.2,0.3-0.4,0.3-0.6c0-0.2,0-0.3-0.1-0.5c-0.1-0.1-0.2-0.2-0.4-0.3c-0.2-0.1-0.5-0.1-0.9-0.1h-1.1V10.4z"></path> </g> </g> <g> <g> <g> <g> <path fill="#77787B" d="M33.2,76.8h-4.7v12.7h-1.7V76.8h-4.7v-1.6h11.1V76.8z"></path> <path fill="#77787B" d="M35,74.2h1.6v7.1h0c0.1-0.2,0.3-0.4,0.4-0.6c0.2-0.2,0.4-0.3,0.7-0.5c0.3-0.1,0.6-0.3,0.9-0.4 c0.3-0.1,0.7-0.1,1-0.1c0.6,0,1.1,0.1,1.6,0.3c0.4,0.2,0.8,0.4,1.1,0.8c0.3,0.3,0.5,0.7,0.7,1.2c0.1,0.5,0.2,1,0.2,1.6v5.8 h-1.6v-5.6c0-0.8-0.2-1.4-0.5-1.9c-0.3-0.5-0.9-0.7-1.6-0.7c-0.5,0-0.9,0.1-1.3,0.3c-0.4,0.2-0.7,0.4-0.9,0.7 c-0.2,0.3-0.4,0.7-0.5,1.1c-0.1,0.4-0.2,0.9-0.2,1.5v4.6H35V74.2z"></path> <path fill="#77787B" d="M54.5,87.7c-0.6,0.7-1.2,1.2-1.8,1.5c-0.7,0.3-1.4,0.4-2.3,0.4c-0.7,0-1.4-0.1-2-0.4 c-0.6-0.3-1.1-0.6-1.5-1.1c-0.4-0.4-0.7-1-0.9-1.6c-0.2-0.6-0.3-1.2-0.3-1.9c0-0.7,0.1-1.4,0.4-2c0.2-0.6,0.6-1.1,1-1.6 c0.4-0.4,0.9-0.8,1.5-1c0.6-0.2,1.2-0.4,1.9-0.4c0.7,0,1.3,0.1,1.8,0.3c0.5,0.2,1,0.5,1.4,1c0.4,0.4,0.7,0.9,0.9,1.5 c0.2,0.6,0.3,1.3,0.3,2.1v0.5h-7.6c0,0.4,0.1,0.8,0.3,1.2c0.2,0.4,0.4,0.7,0.7,1c0.3,0.3,0.6,0.5,0.9,0.7 c0.4,0.2,0.8,0.2,1.2,0.2c0.7,0,1.3-0.1,1.7-0.4c0.5-0.2,0.9-0.6,1.3-1.1L54.5,87.7z M53.2,83.9c0-0.8-0.3-1.4-0.8-1.9 c-0.5-0.5-1.2-0.7-2-0.7c-0.9,0-1.6,0.2-2.1,0.7c-0.5,0.5-0.9,1.1-1,1.9H53.2z"></path> <path fill="#77787B" d="M73.1,78.1c-0.4-0.6-1-1-1.6-1.3c-0.6-0.3-1.3-0.4-2-0.4c-0.8,0-1.5,0.2-2.2,0.5 c-0.7,0.3-1.2,0.8-1.7,1.3c-0.5,0.5-0.9,1.2-1.1,1.9c-0.3,0.7-0.4,1.5-0.4,2.2c0,0.8,0.1,1.6,0.4,2.3c0.3,0.7,0.6,1.3,1.1,1.9 c0.5,0.5,1,0.9,1.7,1.3c0.7,0.3,1.4,0.5,2.2,0.5c0.9,0,1.6-0.2,2.3-0.5c0.7-0.3,1.3-0.8,1.8-1.5l1.3,1.1 c-0.6,0.9-1.4,1.5-2.3,1.9c-0.9,0.4-1.9,0.6-3.1,0.6c-1,0-2-0.2-2.9-0.6c-0.9-0.4-1.7-0.9-2.3-1.6c-0.6-0.7-1.2-1.5-1.5-2.4 c-0.4-0.9-0.6-1.9-0.6-3c0-1,0.2-2,0.5-2.9c0.4-0.9,0.9-1.7,1.5-2.4c0.6-0.7,1.4-1.2,2.3-1.6c0.9-0.4,1.9-0.6,2.9-0.6 c1,0,1.9,0.2,2.8,0.5c0.9,0.3,1.6,0.9,2.2,1.7L73.1,78.1z"></path> <path fill="#77787B" d="M77.2,74.2h1.6v15.2h-1.6V74.2z"></path> <path fill="#77787B" d="M90.3,87.7c-0.6,0.7-1.2,1.2-1.8,1.5c-0.7,0.3-1.4,0.4-2.3,0.4c-0.7,0-1.4-0.1-2-0.4 c-0.6-0.3-1.1-0.6-1.5-1.1c-0.4-0.4-0.7-1-0.9-1.6c-0.2-0.6-0.3-1.2-0.3-1.9c0-0.7,0.1-1.4,0.4-2c0.2-0.6,0.6-1.1,1-1.6 c0.4-0.4,0.9-0.8,1.5-1c0.6-0.2,1.2-0.4,1.9-0.4c0.7,0,1.3,0.1,1.8,0.3c0.5,0.2,1,0.5,1.4,1c0.4,0.4,0.7,0.9,0.9,1.5 c0.2,0.6,0.3,1.3,0.3,2.1v0.5H83c0,0.4,0.1,0.8,0.3,1.2c0.2,0.4,0.4,0.7,0.7,1c0.3,0.3,0.6,0.5,0.9,0.7 c0.4,0.2,0.8,0.2,1.2,0.2c0.7,0,1.3-0.1,1.7-0.4c0.5-0.2,0.9-0.6,1.3-1.1L90.3,87.7z M88.9,83.9c0-0.8-0.3-1.4-0.8-1.9 c-0.5-0.5-1.2-0.7-2-0.7S84.5,81.5,84,82c-0.5,0.5-0.9,1.1-1,1.9H88.9z"></path> <path fill="#77787B" d="M92.9,81.2c0.5-0.5,1.1-0.9,1.7-1.1c0.7-0.2,1.3-0.4,2-0.4c1.4,0,2.4,0.3,3,1c0.6,0.7,0.9,1.7,0.9,3v4 c0,0.3,0,0.5,0,0.8c0,0.3,0.1,0.6,0.1,0.8h-1.5c-0.1-0.2-0.1-0.5-0.1-0.7c0-0.3,0-0.5,0-0.7h0c-0.3,0.5-0.7,0.9-1.2,1.2 c-0.5,0.3-1.1,0.5-1.9,0.5c-0.5,0-0.9-0.1-1.4-0.2c-0.4-0.1-0.8-0.3-1.1-0.5c-0.3-0.2-0.6-0.5-0.8-0.9s-0.3-0.8-0.3-1.2 c0-0.8,0.2-1.4,0.6-1.8c0.4-0.4,0.9-0.8,1.5-1c0.6-0.2,1.2-0.3,1.9-0.4c0.7-0.1,1.3-0.1,1.9-0.1H99v-0.3c0-0.7-0.2-1.2-0.6-1.5 c-0.4-0.3-1-0.5-1.7-0.5c-0.5,0-1,0.1-1.5,0.3c-0.5,0.2-0.9,0.4-1.3,0.8L92.9,81.2z M97.5,84.9c-1,0-1.8,0.1-2.4,0.4 c-0.6,0.3-0.9,0.7-0.9,1.4c0,0.6,0.2,1,0.6,1.3c0.4,0.2,0.9,0.4,1.5,0.4c0.5,0,0.9-0.1,1.2-0.2c0.3-0.2,0.6-0.4,0.9-0.6 c0.2-0.3,0.4-0.6,0.5-0.9c0.1-0.3,0.2-0.7,0.2-1.1v-0.6H97.5z"></path> <path fill="#77787B" d="M103.5,82.3c0-0.4,0-0.8,0-1.2c0-0.4,0-0.7,0-1h1.5c0,0.3,0,0.5,0,0.8c0,0.3,0,0.5,0,0.8h0 c0.1-0.2,0.3-0.4,0.5-0.7c0.2-0.2,0.4-0.4,0.7-0.6c0.3-0.2,0.6-0.3,0.9-0.4c0.3-0.1,0.7-0.2,1.1-0.2c0.1,0,0.2,0,0.3,0 c0.1,0,0.2,0,0.3,0.1l-0.1,1.6c-0.3-0.1-0.5-0.1-0.8-0.1c-1,0-1.7,0.3-2.1,0.9c-0.4,0.6-0.7,1.5-0.7,2.6v4.6h-1.6V82.3z"></path> <path fill="#77787B" d="M126.4,78.1c-0.4-0.6-1-1-1.6-1.3c-0.6-0.3-1.3-0.4-2-0.4c-0.8,0-1.5,0.2-2.2,0.5 c-0.7,0.3-1.2,0.8-1.7,1.3c-0.5,0.5-0.9,1.2-1.1,1.9s-0.4,1.5-0.4,2.2c0,0.8,0.1,1.6,0.4,2.3s0.6,1.3,1.1,1.9 c0.5,0.5,1,0.9,1.7,1.3c0.7,0.3,1.4,0.5,2.2,0.5c0.9,0,1.6-0.2,2.3-0.5c0.7-0.3,1.3-0.8,1.8-1.5l1.3,1.1 c-0.6,0.9-1.4,1.5-2.3,1.9c-0.9,0.4-1.9,0.6-3.1,0.6c-1,0-2-0.2-2.9-0.6c-0.9-0.4-1.7-0.9-2.3-1.6c-0.7-0.7-1.2-1.5-1.5-2.4 c-0.4-0.9-0.6-1.9-0.6-3c0-1,0.2-2,0.5-2.9c0.4-0.9,0.9-1.7,1.5-2.4c0.6-0.7,1.4-1.2,2.3-1.6c0.9-0.4,1.9-0.6,2.9-0.6 c1,0,1.9,0.2,2.8,0.5c0.9,0.3,1.6,0.9,2.2,1.7L126.4,78.1z"></path> <path fill="#77787B" d="M130.3,74.2h1.6v7.1h0c0.1-0.2,0.3-0.4,0.4-0.6c0.2-0.2,0.4-0.3,0.7-0.5c0.3-0.1,0.6-0.3,0.9-0.4 c0.3-0.1,0.7-0.1,1-0.1c0.6,0,1.1,0.1,1.6,0.3c0.4,0.2,0.8,0.4,1.1,0.8c0.3,0.3,0.5,0.7,0.7,1.2c0.1,0.5,0.2,1,0.2,1.6v5.8 h-1.6v-5.6c0-0.8-0.2-1.4-0.5-1.9c-0.3-0.5-0.9-0.7-1.6-0.7c-0.5,0-0.9,0.1-1.3,0.3c-0.4,0.2-0.7,0.4-0.9,0.7 c-0.2,0.3-0.4,0.7-0.5,1.1c-0.1,0.4-0.2,0.9-0.2,1.5v4.6h-1.6V74.2z"></path> <path fill="#77787B" d="M140.9,84.7c0-0.7,0.1-1.4,0.4-2c0.3-0.6,0.6-1.1,1-1.6c0.4-0.4,1-0.8,1.6-1c0.6-0.2,1.3-0.4,2-0.4 c0.7,0,1.4,0.1,2,0.4c0.6,0.2,1.1,0.6,1.6,1c0.4,0.4,0.8,1,1,1.6c0.3,0.6,0.4,1.3,0.4,2s-0.1,1.4-0.4,2c-0.3,0.6-0.6,1.1-1,1.6 c-0.4,0.4-1,0.8-1.6,1c-0.6,0.2-1.3,0.4-2,0.4c-0.7,0-1.4-0.1-2-0.4c-0.6-0.2-1.1-0.6-1.6-1c-0.4-0.4-0.8-1-1-1.6 C141,86.1,140.9,85.5,140.9,84.7z M142.6,84.7c0,0.5,0.1,1,0.2,1.4c0.2,0.4,0.4,0.8,0.7,1.1c0.3,0.3,0.6,0.6,1.1,0.7 s0.9,0.3,1.4,0.3s1-0.1,1.4-0.3c0.4-0.2,0.8-0.4,1.1-0.7c0.3-0.3,0.5-0.7,0.7-1.1c0.2-0.4,0.2-0.9,0.2-1.4s-0.1-1-0.2-1.4 c-0.2-0.4-0.4-0.8-0.7-1.1c-0.3-0.3-0.6-0.6-1.1-0.7c-0.4-0.2-0.9-0.3-1.4-0.3s-1,0.1-1.4,0.3c-0.4,0.2-0.8,0.4-1.1,0.7 c-0.3,0.3-0.5,0.7-0.7,1.1C142.7,83.8,142.6,84.2,142.6,84.7z"></path> <path fill="#77787B" d="M153.2,76.4c0-0.3,0.1-0.6,0.3-0.8c0.2-0.2,0.5-0.3,0.8-0.3s0.6,0.1,0.8,0.3c0.2,0.2,0.3,0.5,0.3,0.8 c0,0.3-0.1,0.6-0.3,0.8c-0.2,0.2-0.5,0.3-0.8,0.3s-0.6-0.1-0.8-0.3C153.3,77,153.2,76.7,153.2,76.4z M153.5,80h1.6v9.4h-1.6V80 z"></path> <path fill="#77787B" d="M164.9,82.4c-0.3-0.4-0.7-0.7-1.1-0.9c-0.4-0.2-0.8-0.3-1.3-0.3c-0.5,0-1,0.1-1.4,0.3 c-0.4,0.2-0.7,0.4-1,0.8c-0.3,0.3-0.5,0.7-0.6,1.1c-0.1,0.4-0.2,0.9-0.2,1.4s0.1,0.9,0.2,1.4c0.2,0.4,0.4,0.8,0.6,1.1 c0.3,0.3,0.6,0.6,1,0.8c0.4,0.2,0.8,0.3,1.3,0.3c1,0,1.8-0.4,2.4-1.2l1.2,1.1c-0.5,0.5-1,0.9-1.6,1.1c-0.6,0.2-1.3,0.4-1.9,0.4 c-0.7,0-1.4-0.1-2-0.4c-0.6-0.2-1.1-0.6-1.5-1c-0.4-0.4-0.8-1-1-1.6c-0.2-0.6-0.4-1.3-0.4-2c0-0.7,0.1-1.4,0.4-2 c0.2-0.6,0.6-1.1,1-1.6c0.4-0.4,0.9-0.8,1.5-1c0.6-0.2,1.3-0.4,2-0.4c0.7,0,1.4,0.1,2,0.4c0.6,0.2,1.2,0.6,1.6,1.1L164.9,82.4z "></path> <path fill="#77787B" d="M176.3,87.7c-0.6,0.7-1.2,1.2-1.8,1.5c-0.7,0.3-1.4,0.4-2.3,0.4c-0.7,0-1.4-0.1-2-0.4 c-0.6-0.3-1.1-0.6-1.5-1.1c-0.4-0.4-0.7-1-0.9-1.6c-0.2-0.6-0.3-1.2-0.3-1.9c0-0.7,0.1-1.4,0.4-2c0.2-0.6,0.6-1.1,1-1.6 c0.4-0.4,0.9-0.8,1.5-1c0.6-0.2,1.2-0.4,1.9-0.4c0.7,0,1.3,0.1,1.8,0.3c0.5,0.2,1,0.5,1.4,1c0.4,0.4,0.7,0.9,0.9,1.5 c0.2,0.6,0.3,1.3,0.3,2.1v0.5H169c0,0.4,0.1,0.8,0.3,1.2c0.2,0.4,0.4,0.7,0.7,1c0.3,0.3,0.6,0.5,0.9,0.7 c0.4,0.2,0.8,0.2,1.2,0.2c0.7,0,1.3-0.1,1.7-0.4c0.5-0.2,0.9-0.6,1.3-1.1L176.3,87.7z M174.9,83.9c0-0.8-0.3-1.4-0.8-1.9 c-0.5-0.5-1.2-0.7-2-0.7c-0.9,0-1.6,0.2-2.1,0.7c-0.5,0.5-0.9,1.1-1,1.9H174.9z"></path> </g> </g> </g> </g> </g> <g> <path fill="#77787B" d="M180,77.2c0.5,0,0.9,0.1,1.4,0.4c0.5,0.2,0.8,0.6,1.1,1.1c0.3,0.5,0.4,0.9,0.4,1.4c0,0.5-0.1,1-0.4,1.4 c-0.3,0.5-0.6,0.8-1.1,1.1c-0.5,0.3-0.9,0.4-1.4,0.4c-0.5,0-1-0.1-1.4-0.4c-0.5-0.3-0.8-0.6-1.1-1.1c-0.3-0.5-0.4-0.9-0.4-1.4 c0-0.5,0.1-1,0.4-1.4c0.3-0.5,0.6-0.8,1.1-1.1C179,77.4,179.5,77.2,180,77.2z M180,77.7c-0.4,0-0.8,0.1-1.2,0.3 c-0.4,0.2-0.7,0.5-0.9,0.9c-0.2,0.4-0.3,0.8-0.3,1.2c0,0.4,0.1,0.8,0.3,1.2c0.2,0.4,0.5,0.7,0.9,0.9c0.4,0.2,0.8,0.3,1.2,0.3 c0.4,0,0.8-0.1,1.2-0.3c0.4-0.2,0.7-0.5,0.9-0.9c0.2-0.4,0.3-0.8,0.3-1.2c0-0.4-0.1-0.8-0.3-1.2c-0.2-0.4-0.5-0.7-0.9-0.9 C180.8,77.8,180.4,77.7,180,77.7z M178.7,81.7v-3.1h1.1c0.4,0,0.6,0,0.8,0.1c0.2,0.1,0.3,0.2,0.4,0.3c0.1,0.1,0.1,0.3,0.1,0.5 c0,0.2-0.1,0.4-0.2,0.6c-0.2,0.2-0.4,0.3-0.6,0.3c0.1,0,0.2,0.1,0.3,0.2c0.1,0.1,0.3,0.3,0.5,0.6l0.4,0.6h-0.6l-0.3-0.5 c-0.2-0.4-0.4-0.6-0.5-0.7c-0.1-0.1-0.2-0.1-0.4-0.1h-0.3v1.3H178.7z M179.2,80h0.6c0.3,0,0.5,0,0.6-0.1c0.1-0.1,0.2-0.2,0.2-0.3 c0-0.1,0-0.2-0.1-0.2c-0.1-0.1-0.1-0.1-0.2-0.2c-0.1,0-0.3-0.1-0.5-0.1h-0.6V80z"></path> </g> </svg>